<svg width="800" height="800" viewBox="0 0 50 50" xmlns="http://www.w3.org/2000/svg"><path d="M25 1.998c-.157 0-.316.036-.46.111l-21 11c-.33.18-.54.521-.54.891v2h44v-2c0-.37-.21-.71-.54-.89l-21-11a1.002 1.002 0 0 0-.46-.112zM5 18v1.4c0 1.25.84 2.27 2 2.53V38h8V21.93c1.16-.26 2-1.28 2-2.53V18H5zm14 0v1.4c0 1.25.84 2.27 2 2.53V38h8V21.93c1.16-.26 2-1.28 2-2.53V18H19zm14 0v1.4c0 1.25.84 2.27 2 2.53V38h8V21.93c1.16-.26 2-1.28 2-2.53V18H33zM4 40c-.44 0-.93.16-1.28.45-.46.39-.72.97-.72 1.58v2.75C2 46.02 2.92 47 4.1 47h41.7c1.16 0 2.1-.95 2.1-2.12v-2.75c0-1.17-.94-2.12-2.1-2.12L4 40z"/></svg>